<mxfile host="app.diagrams.net" modified="2024-02-05T02:27:57.436Z" agent="Mozilla/5.0 (Macintosh; Intel Mac OS X 10_15_7) AppleWebKit/537.36 (KHTML, like Gecko) Chrome/120.0.0.0 Safari/537.36" version="22.1.21" etag="NruvbURqWaJ38G7ur6T5" type="github">
  <diagram name="第 1 页" id="fIXB5_84uVGza68h7es5">
    <mxGraphModel>
      <root>
        <mxCell id="0" />
        <mxCell id="1" parent="0" />
      </root>
    </mxGraphModel>
  </diagram>
</mxfile>
